<?xml version="1.0" encoding="iso-8859-1"?>
<!-- Generator: Adobe Illustrator 17.1.0, SVG Export Plug-In . SVG Version: 6.00 Build 0)  -->
<!DOCTYPE svg PUBLIC "-//W3C//DTD SVG 1.1//EN" "http://www.w3.org/Graphics/SVG/1.1/DTD/svg11.dtd">
<svg version="1.1" id="Capa_1" xmlns="http://www.w3.org/2000/svg" xmlns:xlink="http://www.w3.org/1999/xlink" x="0px" y="0px"
	 viewBox="-49 141 512 512" style="enable-background:new -49 141 512 512;" xml:space="preserve">
<path style="fill:#FFFFFF;" d="M383,241c-5.52,0-10,4.48-10,10s4.48,10,10,10s10-4.48,10-10S388.52,241,383,241z"/>
<path style="fill:#FFFFFF;" d="M31,241c-5.52,0-10,4.48-10,10s4.48,10,10,10s10-4.48,10-10S36.52,241,31,241z"/>
<path style="fill:#FFFFFF;" d="M453,361h-11.96c-3.738-28.804-12.77-56.253-26.944-81.705c-2.687-4.824-8.776-6.559-13.602-3.872
	c-4.825,2.687-6.559,8.777-3.872,13.602c12.508,22.463,20.646,46.628,24.252,71.975H413c-5.523,0-10,4.477-10,10v40
	c0,5.523,4.477,10,10,10h40c5.523,0,10-4.477,10-10v-40C463,365.477,458.523,361,453,361z M443,401h-20v-20h9.078
	c0.003,0,0.007,0,0.01,0c0.004,0,0.007,0,0.011,0H443V401z"/>
<path style="fill:#FFFFFF;" d="M316.981,433.621c-0.006-0.155-0.01-0.31-0.023-0.465c-0.018-0.212-0.047-0.421-0.078-0.629
	c-0.019-0.128-0.034-0.256-0.059-0.384c-0.046-0.245-0.106-0.485-0.169-0.724c-0.024-0.091-0.043-0.182-0.07-0.272
	c-0.089-0.299-0.193-0.592-0.309-0.879c-0.013-0.031-0.022-0.064-0.035-0.095c-0.138-0.334-0.293-0.659-0.465-0.973l-99.998-182.996
	C214.022,242.996,210.657,241,207,241s-7.022,1.996-8.775,5.205L98.227,429.201c-0.172,0.314-0.327,0.639-0.465,0.973
	c-0.013,0.031-0.022,0.063-0.035,0.095c-0.116,0.287-0.22,0.58-0.309,0.879c-0.027,0.09-0.046,0.181-0.07,0.272
	c-0.064,0.239-0.123,0.478-0.169,0.724c-0.024,0.127-0.039,0.255-0.059,0.384c-0.031,0.208-0.06,0.417-0.078,0.629
	c-0.013,0.155-0.018,0.31-0.023,0.465C97.014,433.748,97,433.872,97,434c0,0.066,0.009,0.129,0.01,0.195
	c0.003,0.157,0.013,0.313,0.024,0.47c0.013,0.199,0.029,0.397,0.054,0.593c0.018,0.138,0.04,0.275,0.063,0.413
	c0.036,0.216,0.079,0.43,0.129,0.641c0.028,0.119,0.059,0.238,0.092,0.356c0.063,0.228,0.135,0.452,0.213,0.673
	c0.022,0.063,0.036,0.127,0.06,0.19l36.064,95.569c-2.893,1.434-5.569,3.339-7.92,5.689C120.121,544.457,117,551.99,117,560
	c0,13.036,8.361,24.152,20,28.28V643c0,5.523,4.477,10,10,10h120c5.523,0,10-4.477,10-10v-54.703
	c4.169-1.471,7.992-3.866,11.212-7.086C293.879,575.543,297,568.01,297,560c0-11.773-6.819-21.978-16.713-26.887l36.069-95.582
	c0.024-0.063,0.038-0.127,0.06-0.19c0.078-0.221,0.15-0.445,0.213-0.673c0.033-0.118,0.063-0.237,0.092-0.356
	c0.05-0.211,0.092-0.425,0.129-0.641c0.023-0.138,0.046-0.275,0.063-0.413c0.025-0.196,0.041-0.394,0.054-0.593
	c0.01-0.157,0.021-0.313,0.024-0.47c0.001-0.065,0.01-0.129,0.01-0.195C317,433.872,316.986,433.748,316.981,433.621z M267,444
	h25.538l-32.453,86h-106.17l-32.453-86H147c5.523,0,10-4.477,10-10s-4.477-10-10-10h-23.14L197,290.154V405.72
	c-11.639,4.128-20,15.243-20,28.28c0,16.542,13.458,30,30,30s30-13.458,30-30c0-13.036-8.361-24.152-20-28.28V290.154L290.14,424
	H267c-5.523,0-10,4.477-10,10S261.477,444,267,444z M207,424c5.514,0,10,4.486,10,10s-4.486,10-10,10s-10-4.486-10-10
	S201.486,424,207,424z M157,633v-43h100v43H157z M274.069,567.068c-1.89,1.891-4.401,2.932-7.069,2.932H147c-5.514,0-10-4.486-10-10
	c0-2.668,1.041-5.179,2.931-7.068c1.891-1.891,4.401-2.932,7.069-2.932h119.933c0.022,0,0.044,0.003,0.066,0.003
	c0.011,0,0.023-0.001,0.034-0.001c5.499,0.018,9.968,4.495,9.968,9.998C277,562.668,275.959,565.179,274.069,567.068z"/>
<path style="fill:#FFFFFF;" d="M13.505,275.423c-4.826-2.688-10.916-0.954-13.602,3.872C-14.27,304.747-23.303,332.196-27.04,361
	H-39c-5.523,0-10,4.477-10,10v40c0,5.523,4.477,10,10,10H1c5.523,0,10-4.477,10-10v-40c0-5.523-4.477-10-10-10h-7.875
	c3.607-25.347,11.744-49.512,24.252-71.975C20.064,284.2,18.331,278.11,13.505,275.423z M-9,401h-20v-20h10.901
	c0.004,0,0.007,0,0.011,0c0.003,0,0.007,0,0.01,0H-9V401z"/>
<path style="fill:#FFFFFF;" d="M361.175,215.084c-16.1-13.573-35.66-25.159-56.989-34.084H404.72c4.128,11.639,15.243,20,28.28,20
	c16.542,0,30-13.458,30-30s-13.458-30-30-30c-13.036,0-24.152,8.361-28.28,20H237v-10c0-5.523-4.477-10-10-10h-40
	c-5.523,0-10,4.477-10,10v10H9.28C5.152,149.361-5.964,141-19,141c-16.542,0-30,13.458-30,30s13.458,30,30,30
	c13.036,0,24.152-8.361,28.28-20h100.534c-21.329,8.925-40.889,20.511-56.989,34.084c-4.223,3.56-4.76,9.869-1.2,14.091
	c1.978,2.347,4.805,3.555,7.65,3.555c2.276,0,4.564-0.772,6.44-2.354c28.692-24.188,69.638-41.463,111.285-47.257V191
	c0,5.523,4.477,10,10,10h40c5.523,0,10-4.477,10-10v-7.881c41.647,5.794,82.593,23.069,111.285,47.256
	c1.876,1.582,4.164,2.355,6.44,2.354c2.846,0,5.673-1.208,7.65-3.555C365.936,224.953,365.398,218.644,361.175,215.084z M433,161
	c5.514,0,10,4.486,10,10s-4.486,10-10,10s-10-4.486-10-10S427.486,161,433,161z M-19,181c-5.514,0-10-4.486-10-10s4.486-10,10-10
	s10,4.486,10,10S-13.486,181-19,181z M217,181h-20v-9.1V171v-10h20v10v0.9V181z"/>
</svg>
